<?xml version="1.0" encoding="UTF-8"?><svg xmlns="http://www.w3.org/2000/svg" xmlns:xlink="http://www.w3.org/1999/xlink" contentScriptType="text/ecmascript" width="810pt" zoomAndPan="magnify" contentStyleType="text/css" viewBox="0 0 810 809.999993" height="809.999993pt" preserveAspectRatio="xMidYMid meet" version="1.2"><defs><clipPath xml:id="clip1" id="clip1"><path d="M 237 119 L 634.382812 119 L 634.382812 715 L 237 715 Z M 237 119 "/></clipPath></defs><g xml:id="surface1" id="surface1"><path style=" stroke:none;fill-rule:nonzero;fill:rgb(68.629456%,5.488586%,25.099182%);fill-opacity:1;" d="M 602.066406 129.757812 L 539.003906 93.582031 C 536.246094 91.566406 533.289062 89.867188 530.144531 88.496094 L 529.214844 87.96875 L 529.175781 88.046875 C 512.210938 81.140625 490.296875 83.636719 466.394531 97.453125 L 272.160156 209.738281 C 218.757812 240.617188 175.0625 316.40625 175.0625 378.167969 L 175.0625 602.746094 C 175.0625 632.863281 185.507812 654.21875 202.347656 664.703125 L 202.1875 664.992188 L 272.269531 704.753906 L 311.679688 636.042969 L 466.394531 546.605469 C 519.789062 515.722656 563.492188 439.933594 563.492188 378.171875 L 563.492188 197.007812 Z M 602.066406 129.757812 "/><path style=" stroke:none;fill-rule:nonzero;fill:rgb(60.778809%,5.488586%,19.999695%);fill-opacity:1;" d="M 602.066406 129.757812 L 534.5625 113.90625 C 531.804688 111.890625 518.019531 111.945312 514.878906 110.570312 L 509.875 108.558594 L 500.863281 106.886719 C 483.898438 99.980469 490.296875 83.628906 466.394531 97.445312 L 272.160156 209.738281 C 218.757812 240.617188 175.0625 316.40625 175.0625 378.167969 L 175.0625 602.746094 C 175.0625 632.863281 185.507812 654.21875 202.347656 664.703125 L 202.1875 664.992188 L 272.269531 704.753906 L 311.679688 636.042969 L 466.394531 546.605469 C 519.789062 515.722656 563.492188 439.933594 563.492188 378.171875 L 563.492188 197.007812 Z M 602.066406 129.757812 "/><path style=" stroke:none;fill-rule:nonzero;fill:rgb(55.688477%,2.749634%,14.118958%);fill-opacity:1;" d="M 178.777344 345.816406 C 176.421875 356.804688 175.078125 367.695312 175.078125 378.167969 L 175.078125 602.746094 C 175.078125 632.863281 185.519531 654.21875 202.363281 664.703125 L 202.199219 664.992188 L 272.285156 704.753906 L 311.695312 636.042969 L 466.40625 546.605469 C 475.476562 541.359375 484.25 534.726562 492.585938 527.171875 Z M 178.777344 345.816406 "/><path style=" stroke:none;fill-rule:nonzero;fill:rgb(83.918762%,9.408569%,25.489807%);fill-opacity:1;" d="M 338.929688 248.5 C 285.527344 279.378906 241.820312 355.167969 241.820312 416.929688 L 241.820312 641.507812 C 241.820312 703.265625 285.527344 728.527344 338.929688 697.652344 L 533.148438 585.363281 C 586.550781 554.480469 630.253906 478.691406 630.253906 416.929688 L 630.253906 192.359375 C 630.253906 130.597656 586.550781 105.339844 533.148438 136.214844 Z M 338.929688 248.5 "/><path style=" stroke:none;fill-rule:nonzero;fill:rgb(74.899292%,6.669617%,18.03894%);fill-opacity:1;" d="M 630.25 192.359375 C 630.25 130.597656 586.546875 105.339844 533.140625 136.214844 L 338.925781 248.5 C 285.519531 279.378906 241.816406 355.167969 241.816406 416.929688 L 241.816406 641.507812 C 241.816406 703.265625 285.519531 728.527344 338.925781 697.652344 "/><g clip-rule="nonzero" clip-path="url(#clip1)"><path style=" stroke:none;fill-rule:nonzero;fill:rgb(97.648621%,9.799194%,14.509583%);fill-opacity:1;" d="M 295.792969 714.839844 L 295.78125 714.839844 C 260.574219 714.839844 237.824219 686.050781 237.824219 641.507812 L 237.824219 416.929688 C 237.824219 353.734375 282.273438 276.617188 336.917969 245.03125 L 531.144531 132.742188 C 546.890625 123.636719 562.078125 119.027344 576.289062 119.027344 C 611.5 119.027344 634.257812 147.8125 634.257812 192.359375 L 634.257812 416.933594 C 634.257812 480.128906 589.796875 557.25 535.152344 588.835938 L 340.925781 701.125 C 325.183594 710.222656 310.003906 714.839844 295.792969 714.839844 Z M 576.296875 127.03125 C 563.507812 127.03125 549.664062 131.28125 535.160156 139.660156 L 340.925781 251.949219 C 288.492188 282.269531 245.824219 356.273438 245.824219 416.910156 L 245.824219 641.488281 C 245.824219 681.769531 264.964844 706.800781 295.78125 706.800781 L 295.792969 706.800781 C 308.582031 706.800781 322.414062 702.542969 336.917969 694.164062 L 531.144531 581.878906 C 583.578125 551.558594 626.246094 477.554688 626.246094 416.914062 L 626.246094 192.339844 C 626.25 152.054688 607.113281 127.03125 576.296875 127.03125 Z M 576.296875 127.03125 "/></g><path style=" stroke:none;fill-rule:nonzero;fill:rgb(100%,100%,100%);fill-opacity:1;" d="M 314.832031 405.285156 C 307.644531 409.441406 301.769531 419.644531 301.769531 427.953125 L 301.769531 579.050781 C 301.769531 587.359375 307.644531 590.761719 314.832031 586.601562 L 497.761719 480.839844 C 504.957031 476.679688 510.835938 466.480469 510.835938 458.171875 L 510.835938 307.078125 C 510.835938 298.769531 504.957031 295.371094 497.761719 299.527344 Z M 314.832031 405.285156 "/><path style=" stroke:none;fill-rule:nonzero;fill:rgb(88.62915%,91.369629%,94.898987%);fill-opacity:1;" d="M 510.839844 399.484375 L 510.839844 307.074219 C 510.839844 298.761719 504.960938 295.363281 497.765625 299.523438 L 314.832031 405.285156 C 307.644531 409.441406 301.769531 419.644531 301.769531 427.953125 L 301.769531 579.050781 C 301.769531 587.363281 307.644531 590.761719 314.832031 586.601562 L 447.015625 510.183594 Z M 510.839844 399.484375 "/><path style=" stroke:none;fill-rule:nonzero;fill:rgb(100%,100%,100%);fill-opacity:1;" d="M 533.8125 343.101562 C 528.75 349.6875 524.609375 361.878906 524.609375 370.183594 L 524.609375 385.296875 C 524.609375 393.605469 531.320312 401.382812 539.535156 402.5625 L 561.9375 405.808594 C 570.15625 406.984375 576.871094 401.164062 576.871094 392.851562 L 576.878906 302.191406 C 576.878906 293.886719 572.738281 292.46875 567.675781 299.054688 Z M 533.8125 343.101562 "/><path style=" stroke:none;fill-rule:nonzero;fill:rgb(88.62915%,91.369629%,94.898987%);fill-opacity:1;" d="M 524.609375 375.601562 L 570.304688 296.339844 C 569.464844 297.019531 568.59375 297.863281 567.675781 299.054688 L 533.8125 343.101562 C 528.75 349.6875 524.609375 361.878906 524.609375 370.183594 Z M 524.609375 375.601562 "/></g></svg>