<?xml version="1.0" encoding="UTF-8"?><svg xmlns="http://www.w3.org/2000/svg" xmlns:xlink="http://www.w3.org/1999/xlink" contentScriptType="text/ecmascript" width="810pt" zoomAndPan="magnify" contentStyleType="text/css" viewBox="0 0 810 809.999993" height="809.999993pt" preserveAspectRatio="xMidYMid meet" version="1.2"><defs><clipPath xml:id="clip1" id="clip1"><path d="M 237 119 L 634.382812 119 L 634.382812 715 L 237 715 Z M 237 119 "/></clipPath></defs><g xml:id="surface1" id="surface1"><path style=" stroke:none;fill-rule:nonzero;fill:rgb(23.139954%,39.99939%,92.939758%);fill-opacity:1;" d="M 602.066406 129.757812 L 539.003906 93.582031 C 536.246094 91.570312 533.289062 89.867188 530.144531 88.496094 L 529.214844 87.964844 L 529.175781 88.042969 C 512.210938 81.136719 490.296875 83.636719 466.394531 97.453125 L 272.160156 209.738281 C 218.757812 240.617188 175.0625 316.40625 175.0625 378.167969 L 175.0625 602.746094 C 175.0625 632.863281 185.507812 654.21875 202.347656 664.703125 L 202.1875 664.992188 L 272.269531 704.753906 L 311.679688 636.042969 L 466.394531 546.605469 C 519.789062 515.722656 563.492188 439.933594 563.492188 378.171875 L 563.492188 197.007812 Z M 602.066406 129.757812 "/><path style=" stroke:none;fill-rule:nonzero;fill:rgb(16.468811%,29.40979%,84.709167%);fill-opacity:1;" d="M 602.066406 129.757812 L 534.5625 113.90625 C 531.804688 111.890625 518.019531 111.945312 514.878906 110.570312 L 509.875 108.558594 L 500.863281 106.886719 C 483.898438 99.980469 490.296875 83.628906 466.394531 97.445312 L 272.160156 209.738281 C 218.757812 240.617188 175.0625 316.40625 175.0625 378.167969 L 175.0625 602.746094 C 175.0625 632.863281 185.507812 654.21875 202.347656 664.703125 L 202.1875 664.992188 L 272.269531 704.753906 L 311.679688 636.042969 L 466.394531 546.605469 C 519.789062 515.722656 563.492188 439.933594 563.492188 378.171875 L 563.492188 197.007812 Z M 602.066406 129.757812 "/><path style=" stroke:none;fill-rule:nonzero;fill:rgb(10.198975%,25.099182%,72.938538%);fill-opacity:1;" d="M 178.777344 345.816406 C 176.421875 356.804688 175.078125 367.695312 175.078125 378.167969 L 175.078125 602.746094 C 175.078125 632.863281 185.519531 654.21875 202.363281 664.703125 L 202.199219 664.992188 L 272.285156 704.753906 L 311.695312 636.042969 L 466.40625 546.605469 C 475.476562 541.359375 484.25 534.726562 492.585938 527.171875 Z M 178.777344 345.816406 "/><path style=" stroke:none;fill-rule:nonzero;fill:rgb(37.649536%,49.409485%,98.81897%);fill-opacity:1;" d="M 338.929688 248.5 C 285.527344 279.378906 241.820312 355.167969 241.820312 416.929688 L 241.820312 641.507812 C 241.820312 703.265625 285.527344 728.527344 338.929688 697.652344 L 533.148438 585.363281 C 586.550781 554.480469 630.253906 478.691406 630.253906 416.929688 L 630.253906 192.359375 C 630.253906 130.597656 586.550781 105.339844 533.148438 136.214844 Z M 338.929688 248.5 "/><path style=" stroke:none;fill-rule:nonzero;fill:rgb(31.369019%,41.178894%,100%);fill-opacity:1;" d="M 630.25 192.359375 C 630.25 130.597656 586.546875 105.339844 533.140625 136.214844 L 338.925781 248.5 C 285.519531 279.378906 241.816406 355.167969 241.816406 416.929688 L 241.816406 641.507812 C 241.816406 703.265625 285.519531 728.527344 338.925781 697.652344 "/><path style=" stroke:none;fill-rule:nonzero;fill:rgb(31.369019%,41.178894%,100%);fill-opacity:0.498;" d="M 284.238281 709.617188 C 299.839844 712.980469 318.679688 709.355469 338.929688 697.652344 L 533.148438 585.363281 C 533.722656 585.03125 534.277344 584.621094 534.847656 584.277344 L 534.847656 454.175781 L 284.238281 454.175781 Z M 284.238281 709.617188 "/><g clip-rule="nonzero" clip-path="url(#clip1)"><path style=" stroke:none;fill-rule:nonzero;fill:rgb(49.01886%,61.178589%,100%);fill-opacity:1;" d="M 295.792969 714.839844 L 295.78125 714.839844 C 260.574219 714.839844 237.824219 686.050781 237.824219 641.507812 L 237.824219 416.929688 C 237.824219 353.734375 282.273438 276.617188 336.917969 245.03125 L 531.144531 132.742188 C 546.890625 123.636719 562.078125 119.027344 576.289062 119.027344 C 611.5 119.027344 634.257812 147.8125 634.257812 192.359375 L 634.257812 416.933594 C 634.257812 480.128906 589.796875 557.25 535.152344 588.835938 L 340.925781 701.125 C 325.183594 710.222656 310.003906 714.839844 295.792969 714.839844 Z M 576.296875 127.03125 C 563.507812 127.03125 549.664062 131.28125 535.160156 139.660156 L 340.925781 251.949219 C 288.492188 282.269531 245.824219 356.273438 245.824219 416.910156 L 245.824219 641.488281 C 245.824219 681.769531 264.964844 706.800781 295.78125 706.800781 L 295.792969 706.800781 C 308.582031 706.800781 322.414062 702.542969 336.917969 694.164062 L 531.144531 581.878906 C 583.578125 551.558594 626.246094 477.554688 626.246094 416.914062 L 626.246094 192.339844 C 626.25 152.054688 607.113281 127.03125 576.296875 127.03125 Z M 576.296875 127.03125 "/></g><path style=" stroke:none;fill-rule:nonzero;fill:rgb(12.159729%,64.709473%,100%);fill-opacity:1;" d="M 391.769531 574.941406 C 351.035156 574.9375 309.933594 544.601562 309.933594 476.828125 C 309.933594 403.484375 359.507812 317.363281 422.777344 280.757812 C 442.414062 269.417969 461.773438 263.679688 480.332031 263.679688 C 501.804688 263.679688 520.835938 271.394531 535.355469 286 C 553.015625 303.757812 562.277344 330 562.140625 361.863281 C 561.8125 434.898438 512.304688 520.890625 449.4375 557.632812 C 429.800781 569.109375 410.390625 574.9375 391.773438 574.9375 Z M 391.769531 574.941406 "/><path style=" stroke:none;fill-rule:nonzero;fill:rgb(6.669617%,10.978699%,23.919678%);fill-opacity:1;" d="M 480.339844 290.75 C 512.894531 290.75 535.28125 316.773438 535.089844 361.722656 C 534.808594 424.808594 490.105469 502.472656 435.796875 534.214844 C 420.003906 543.453125 405.042969 547.824219 391.769531 547.824219 C 359.355469 547.824219 336.988281 521.738281 336.988281 476.804688 C 336.988281 413.511719 381.660156 335.804688 436.304688 304.195312 C 452.117188 295.070312 467.070312 290.75 480.339844 290.75 M 480.339844 236.5625 C 456.972656 236.5625 433.074219 243.519531 409.292969 257.246094 C 338.390625 298.265625 282.878906 394.695312 282.878906 476.804688 C 282.878906 550.527344 327.660156 602.011719 391.769531 602.011719 C 415.257812 602.011719 439.246094 594.941406 463.082031 581.003906 C 533.4375 539.890625 588.828125 443.679688 589.199219 361.960938 C 589.410156 312.398438 570.460938 282.886719 554.523438 266.859375 C 535.101562 247.324219 508.753906 236.5625 480.339844 236.5625 Z M 480.339844 236.5625 "/><path style=" stroke:none;fill-rule:nonzero;fill:rgb(11.369324%,47.44873%,100%);fill-opacity:1;" d="M 436.308594 304.195312 C 381.660156 335.804688 336.988281 413.511719 336.988281 476.804688 C 336.988281 540.140625 381.410156 566.015625 435.796875 534.214844 "/><path style=" stroke:none;fill-rule:nonzero;fill:rgb(6.669617%,10.978699%,23.919678%);fill-opacity:1;" d="M 562.113281 525.886719 C 557.519531 525.886719 552.871094 524.714844 548.617188 522.25 L 431.601562 454.59375 C 418.660156 447.113281 414.234375 430.539062 421.695312 417.582031 C 429.171875 404.628906 445.714844 400.191406 458.65625 407.664062 L 575.671875 475.316406 C 588.613281 482.800781 593.039062 499.367188 585.578125 512.324219 C 580.558594 521.019531 571.460938 525.886719 562.113281 525.886719 Z M 562.113281 525.886719 "/></g></svg>